
<svg xmlns="http://www.w3.org/2000/svg" version="1.1" xmlns:xlink="http://www.w3.org/1999/xlink" preserveAspectRatio="none" x="0px" y="0px" width="260px" height="210px" viewBox="0 0 260 210">
<defs>
<g id="Layer0_0_FILL">
<path fill="#000000" stroke="none" d="
M 244.8 11.1
L 244.75 11.05
Q 239.4 5.3 231.65 5 226 4.75 221.55 7.3 221.45 7.3 221.4 7.4 219.85 8.2 218.5 9.4
L 218.55 9.4
Q 218.35 9.55 218.15 9.7 218.05 9.7 218.05 9.8 216.5 11 214.95 12.3 214.85 12.3 214.8 12.45
L 203.8 21.3
Q 202.1 22.6 200.5 23.95 200.4 23.95 200.35 24.05 199.95 24.35 199.45 24.75 197.75 26.05 196.55 27.75 195.65 28.9 195.15 30.1 194.8 30.7 194.6 31.4 194.55 31.45 194.6 31.55
L 168.45 49.9 168.45 49.95
Q 167.25 49.05 166.1 48.3 165.6 47.95 165.05 47.9
L 114 40.3 113.95 40.25
Q 113.95 40.2 113.9 40.2 113.2 37.95 112.3 35.85 111.4 33.85 109.55 30.75
L 108.6 30.1
Q 108.1 29.75 107.55 29.4 106.05 28.45 104.55 27.65
L 104.5 27.6
Q 103.75 27.1 102.95 26.8 102.75 26.7 102.6 26.7
L 102.45 26.65 103.05 25 105.55 24.05
Q 105.75 23.15 105.95 22.3 106.35 20.15 106.55 17.85
L 105.8 16.8
Q 106.15 14.9 106.2 12.95 105.5 12.45 104.45 12 103.8 10.1 101.95 8.4 99 5.75 94.8 5.75 90.65 5.75 87.75 8.4 85.2 10.7 84.9 13.9
L 84.9 13.95
Q 84.8 13.95 84.7 14 83.55 14.4 82.9 15.4 82.6 17.95 82.65 19.35 82.7 20.95 82.85 21.9
L 83.05 22.3 83.1 22.3
Q 83.95 23.25 85.1 23.5 85.15 24.2 85.5 24.8 85.45 24.75 85.45 24.8 83.6 25.3 81.75 25.8 80.45 26.15 79.1 26.55 77.8 26.9 76.65 27.55
L 76.55 27.6 74.3 33.3
Q 73.8 35.1 73.3 36.9 73.1 37.5 72.95 38.15 72.6 40.85 71.95 45 71.9 46.8 72.3 48.4 72.95 50.95 74.7 53.05 74.65 53.1 74.6 53.15
L 74.55 53.15
Q 71.4 55.2 68.25 57.4 66.55 58.55 64.85 59.75 61.5 62.1 58.2 64.6 57.45 65.15 56.75 65.7 54.9 67.1 53.05 68.55 51.7 69.6 50.35 70.7 49.5 71.35 49.4 72.4 48.6 78.3 48.1 84.6 47.75 89.05 47.5 93.75 47.3 98.1 47.15 102.8 47.05 106.1 47.05 109.6 36.25 119.15 27.85 127.5 22.25 133.05 17.7 138.1 16.4 143.45 16.65 149.85 15.6 151.2 14.65 152.7 14.6 152.7 14.55 152.8 10 159.6 10 169.55 10 179.4 14.55 186.55 14.55 186.6 14.55 186.65 18.8 193.3 24.65 194.25
L 26.35 194.4 26.45 194.4
Q 26.55 194.35 26.7 194.4 26.75 194.4 26.8 194.4
L 26.85 194.4
Q 27.85 194.4 29.8 194.35
L 201.55 194.35
Q 201.85 194.35 202.15 194.2 204.4 192.95 206.5 191.35 217 183.5 223.2 171.9 227 164.65 229.35 156.95 230.65 152.6 231.5 148.15 233.4 137.85 233.25 127.5 233.2 125.5 233.1 123.5
L 240.2 118.5
Q 241.1 117.8 241.25 116.7
L 241.25 116.65
Q 241.25 116.3 241.2 116
L 241.2 115.95
Q 240.95 114.75 240.4 113.65 240.05 112.8 239.7 112.05 239.35 111.3 239.05 110.55
L 239.05 110.5
Q 238.5 109.35 237.95 108.3 237.4 107.25 236.8 106.25 236.35 105.5 235.95 104.85 233.85 101.55 231.45 99.1 230.25 97.8 228.95 96.8 225.35 93.85 221.2 92.6
L 221.15 92.55
Q 221 92.55 220.95 92.55 214.2 91 204.5 90.1 199.3 89.6 193.4 89.4
L 193.1 84.35
Q 193.05 84.3 193.05 84.25 193 83.85 192.9 83.5 192.8 83.25 192.65 83.05 192.5 82.85 192.35 82.7
L 192.35 82.65
Q 191.65 81.9 190.7 81.8
L 190.7 81.85 184.95 81.1
Q 184.8 79.5 184.55 77.95 184.05 74.75 183.1 71.65 181.85 67.55 181.3 66.3
L 181.35 66.3
Q 182.95 65.4 184.65 64.6 189.9 61.75 195.25 58.9 201.35 55.6 207.5 52.35 207.55 52.35 207.6 52.4
L 207.65 52.4
Q 208.7 52.45 209.85 52.45 212.55 52.3 214.95 51.4
L 215 51.4
Q 215.15 51.25 215.4 51.2 215.45 51.2 215.5 51.2
L 215.5 51.15 237.45 41.75
Q 237.5 41.75 237.55 41.75 241 40.5 244.05 37.8 245.65 36.25 246.85 34.55 246.9 34.55 246.9 34.5 249.8 30.2 250 24.7 250.15 18.65 247.05 13.9 247 13.8 246.95 13.8 246.9 13.65 246.8 13.6 245.95 12.3 244.9 11.1
L 244.8 11.1
M 243.8 15.95
L 243.8 15.9
Q 246.3 19.75 246.2 24.6 246 30.75 241.45 34.95 239 37.15 236.15 38.15
L 236.1 38.2 236.05 38.2
Q 233.5 39.05 230.55 38.9 226.25 38.7 222.95 36.5
L 222.85 36.45
Q 222.55 36.25 222.3 36.1 222.1 35.9 222 35.85 220.9 35 219.95 34 218.9 32.85 218.1 31.65 216.85 29.65 216.3 27.45 215.95 25.75 215.9 24.25 215.8 22.75 215.85 22.4 214.25 25.4 214.5 28.15
L 197.8 39.6
Q 197.55 38.55 197.5 37.45 197.4 36.3 197.55 35.3 197.6 34.4 197.9 33.55
L 197.9 33.5 197.95 33.5 197.95 33.4
Q 198.2 32.55 198.6 31.75 199.25 30.3 200.4 29.05 200.5 28.9 200.65 28.75
L 204.8 25.2
Q 211.5 19.4 218.85 13.65
L 222.2 11.1
Q 226.35 8.55 231.45 8.8 237.7 9.1 242.05 13.7 243 14.8 243.8 15.95
M 195.85 40.55
Q 196.3 42.25 197.2 43.75
L 197.2 43.8 151.55 71.6
Q 151.45 71.4 151.4 71.25 151.1 70.45 151.05 69.55 151 69.05 151.05 68.55 151.05 68.35 151.1 68.15 151.35 66.7 152.35 65.55 152.85 64.95 153.5 64.6 153.5 64.55 153.55 64.55
L 195.4 35.55
Q 195.3 36.5 195.35 37.55
L 195.35 37.6
Q 195.45 39.1 195.85 40.55
M 164.15 51.75
Q 164.65 52.1 165.15 52.45
L 158.15 57.35 127.1 53.05
Q 126.05 53.1 125.2 53.5 123.85 54.05 122.85 55.3 124.25 60.2 124.75 63.55 124.8 64.1 124.9 64.6 125.05 65.9 125.2 67.05 125.3 68.35 125.4 69.4 125.5 71.35 125.45 74.1 125.4 74.25 125.4 74.45
L 111.85 72.75 111.7 72.75
Q 111.55 70.85 111.35 69 111.35 68.75 111.35 68.55 111.15 67.1 110.95 65.7 110.85 65.15 110.8 64.6 110.7 64.05 110.6 63.55 110.25 61.6 109.85 59.75 109.65 59.05 109.5 58.4 107.7 51.2 105.35 45.6 105.3 45.1 105.45 44.75 105.8 43.5 107.65 43.65
L 107.75 43.65 164.15 51.75
M 177.7 68
Q 177.8 68.25 177.95 68.55 179 71.15 179.75 74 179.95 74.95 180.2 75.95 180.3 76.45 180.4 77.1 180.55 77.95 180.8 80 180.85 80.65 180.95 81.45
L 172.65 80.4 172.9 79.55
Q 173 79.15 173.1 78.75 173.3 77.9 173.4 77.05 173.4 76.95 173.45 76.85 173.6 75.55 173.6 74.15 173.55 72.3 173.25 70.4
L 177.7 68
M 169.9 74.3
Q 169.9 75.55 169.75 76.8
L 169.75 76.85
Q 169.6 77.55 169.45 78.25
L 169.5 78.25
Q 169.4 78.5 169.2 79.05 169.15 79.1 169.15 79.2
L 169.1 79.45
Q 169.05 79.6 168.95 79.85
L 168.95 79.9 159.05 78.65 159.05 78.3
Q 159.15 78 159.25 77.75
L 169.85 72.2
Q 169.9 73.3 169.9 74.3
M 181.4 90.55
L 178.9 93.6 144.6 90.1 144.55 90.05
Q 144.4 89.85 144.3 89.75 144.2 89.65 144.15 89.6 143.1 88.55 141.85 87.6 140.9 86.85 139.9 86.2 138.05 85 136 84 135.9 83.95 135.85 83.95 131.85 82.2 125.25 81.2 123.7 80.95 122.05 80.75
L 122 80.75
Q 119.4 80.45 116.5 80.25 116.45 80.25 116.4 80.25 115.25 80.1 113.6 80 112.2 79.9 110.5 79.8
L 110.55 76.5 188.9 86 189.05 89.2 184.4 89.05
Q 182.55 89 181.4 90.55
M 190.7 93.3
Q 190.5 93.25 190.35 93.15 190.5 93.15 190.7 93.2 190.75 93.15 190.8 93.2
L 190.95 93.2
Q 191.15 93.2 191.4 93.2 209.45 93.95 220.05 96.35 222.85 97.25 225.4 99.1 229.35 101.9 232.55 106.95 234.7 110.35 236.4 114
L 205.35 111.05
Q 204.25 103.9 199.5 99.1 196.2 95.8 191.25 93.55 191 93.4 190.7 93.3
M 220.55 129.35
Q 220.25 129.3 220.05 129.5 219.85 129.65 219.85 129.95 219.8 130.05 219.8 130.2
L 219.8 130.25
Q 219.7 131.55 219.6 132.95 219.55 133.25 219.75 133.45 219.95 133.65 220.25 133.7
L 229.1 134.25
Q 228.8 141.1 227.5 147.85 227.45 147.85 227.4 147.85
L 217.8 147.3
Q 217.55 147.25 217.4 147.45 217.15 147.55 217.1 147.8 217 148.1 216.95 148.45
L 216.9 148.5
Q 216.6 149.65 216.3 150.85 216.25 151 216.35 151.2
L 216.3 151.2
Q 216.4 151.4 216.55 151.55 216.7 151.65 216.95 151.7
L 226.45 152.25
Q 224.85 158.55 222.25 164.45 222.15 164.4 222.05 164.4
L 212.2 163.95
Q 211.95 163.9 211.8 164.05 211.6 164.15 211.5 164.35 211.35 164.6 211.25 164.95 211.15 165.05 211.15 165.2
L 211.15 165.25
Q 211.05 165.3 211 165.45 210.55 166.35 210.1 167.3 210 167.5 210.05 167.75 210.1 168 210.3 168.15 210.45 168.3 210.7 168.3
L 220.15 168.75 219.7 169.7
Q 218.65 171.6 217.5 173.5 215.45 176.9 213 179.9 212.8 179.75 212.55 179.75
L 202.85 179.6
Q 202.65 179.55 202.5 179.65 202.35 179.7 202.25 179.85 201.45 180.85 200.6 181.9 200.55 181.95 200.5 182 200.15 182.4 199.75 182.8 199.6 183 199.6 183.3 199.6 183.55 199.8 183.8 200 183.95 200.3 183.95
L 209.05 184.1
Q 205.45 187.55 201.15 190.4
L 175 190.4 179.05 186.75 183.1 182.35
Q 188.55 175.9 192.25 168.3 192.6 167.5 193 166.75 196.75 158.85 198.85 150.35 199.05 149.5 199.3 148.65 201.75 138.35 202.1 127.85 202.1 127.65 202.15 127.5 202.2 124 202 120.55
L 228.8 123
Q 229 125.2 229.1 127.5 229.1 127.85 229.1 128.2 229.15 129 229.15 129.85
L 220.55 129.35
M 192.1 105.7
L 192.1 105.65
Q 196.9 111.65 195.95 121.45
L 146.1 116.9
Q 146.05 115.4 146.05 113.9
L 152.4 107.75
Q 152.65 107.45 152.75 107.1
L 152.8 106.95
Q 152.8 106.85 152.8 106.75 152.8 106.65 152.8 106.6 152.75 106.55 152.75 106.45 152.35 104.55 151.8 102.8 151.6 102.2 151.35 101.6 149.95 97.8 147.8 94.55
L 178.65 97.55
Q 180.95 98.2 183 99.1 188.55 101.5 192.1 105.7
M 104.3 13.6
Q 104.55 13.95 104.6 14.15 104.85 15.8 104.15 18
L 104.15 18.05
Q 104.1 18.35 103.85 18.65 103.1 18.75 102.15 18.6 102.15 18.55 102.1 18.5
L 101.8 17.55 101.75 17.5 101.55 16.95
Q 101.3 16.35 100.8 16.35 99.85 16.2 98.9 16.15 98.3 16.1 97.95 16.75
L 97.45 17.4
Q 97.4 17.45 97.35 17.5
L 97.05 17.85
Q 96.55 18.2 95.75 18.25 93.3 18.4 91.3 17.9 90.9 17.7 90.7 15.7 90.6 14.35 90.8 12.8 90.95 12.65 91.1 12.6
L 91.1 12.55
Q 91.2 12.5 91.3 12.5 91.4 12.45 91.5 12.4 98.25 11.75 104.3 13.6
M 101.95 20.45
Q 102.05 20.45 102.15 20.5 102.2 20.5 102.4 20.65 102.55 20.7 102.55 20.9 102.4 21.45 102.4 21.75 102.35 21.95 102.25 22.3 102.2 22.45 102.15 22.6 101.95 23.15 101.75 23.7
L 101.55 24.2
Q 101.5 24.35 101.25 24.55 100.95 24.75 100.4 25 99.75 25.2 99.1 25.35 98.9 25.35 98.75 25.35 98.6 25.35 98.45 25.4 98.1 25.4 97.8 25.4 97.6 25.35 97.45 25.35
L 96.45 25.05
Q 95.95 24.8 95.45 24.55 94.95 24.25 94.6 23.8 94.35 23.3 94.25 22.8 94.15 22.55 94.1 22.3 94 22 93.95 21.7 93.9 21.6 93.9 21.5
L 93.9 21.4 93.85 21.3
Q 93.85 21.15 93.9 21 93.95 20.8 94.05 20.6 94.15 20.4 94.75 20.3
L 94.95 20.3
Q 95.25 20.3 95.7 20.25 96.25 20.15 96.95 20.05 97.6 19.95 98.15 19.7
L 98.2 19.65
Q 98.3 19.5 98.4 19.35 98.5 19.15 98.65 18.95 98.8 18.75 98.9 18.55 99 18.4 99.15 18.25 99.15 18.2 99.2 18.2 99.25 18.15 99.3 18.15 99.9 18.1 100.5 18.3 100.5 18.4 100.55 18.5 100.6 18.7 100.7 18.95 100.75 19.15 100.85 19.4 100.85 19.5 100.95 19.8 101 20 101.05 20.1
L 101.1 20.15
Q 101.3 20.2 101.55 20.3 101.75 20.35 101.95 20.45
M 93.25 33.6
Q 95.6 34.5 98.15 34.5 100.8 34.5 102.85 32.85
L 103.9 30.8
Q 105.45 31.15 106.9 31.9 106.75 33.85 107 36.7
L 107.55 39.35 107.5 39.35
Q 102.35 39 97.6 41 96.35 41.55 95.2 42.15 92.95 43.2 90.75 44.3 88.8 45.25 86.9 46.2 86.55 46.35 85.3 47.1 84.15 45.2 81.8 41.4
L 84.95 43.35
Q 85.15 39.75 84.9 38.05 84.65 36.3 84.45 34.45 84.2 32.6 83.15 29.5
L 87.1 28.95
Q 87.25 29.15 87.45 29.4 88.05 30.15 88.8 30.85 89.4 31.35 90.05 31.85 91.55 32.9 93.25 33.6
M 86.05 88.5
Q 90.9 86.3 95.6 84.7 98 83.85 100.4 83.2 102.55 83.35 104.65 83.5 107 83.65 109.3 83.8 112.75 84.05 116.1 84.25 116.25 84.25 116.5 84.3 117.2 84.3 118 84.4 121.85 84.65 125.2 85.2 129.75 85.9 133.25 87.1 134.35 87.45 135.35 87.9 136.4 88.55 137.35 89.25 138.8 90.25 140.1 91.5 141.2 92.55 142.2 93.7 143 94.7 143.75 95.75
L 143.75 95.8
Q 145.5 98.3 146.8 101.1 147.15 101.9 147.5 102.8 147.95 103.95 148.45 105.7
L 109.8 102.3
Q 107.15 93.25 101.85 89.3 100.2 88.05 98.3 87.3 95.95 87.9 93.2 88.8 81.6 92.7 62.7 102.8 59.65 104.4 56.4 106.25 58.8 104.45 61.2 102.8 74.1 93.85 86.05 88.5
M 149.3 63.5
Q 149.1 63.8 148.75 64.6 147.5 67.45 144.7 76.75
L 131.3 75.2
Q 131.45 74.85 131.65 74.5 133.75 70.35 133.45 65.4 133.4 65 133.4 64.6 132.85 60.9 130.1 57.15 130.3 57 130.55 56.95
L 154.15 60.15 149.3 63.5
M 59.35 133.7
Q 59.45 139.35 60.55 142.2 56.8 144.7 50 149.3 46.7 151.5 42.7 154.25 42.1 153.4 41.55 152.65 39.65 150.25 37.55 149.05
L 59.35 133.7
M 67.95 127.7
Q 67.85 129.5 67.95 131.2 68 132.3 68.15 133.45
L 74.4 133.65
Q 74.7 135.95 75.4 138.05
L 68.95 137.85
Q 69.25 139.1 69.7 140.3
L 76.3 140.45
Q 76.95 142 77.8 143.45 80.25 147.55 83.5 149.3 84.05 149.55 84.6 149.8 79.45 150.9 76.35 149.4 81.15 152.9 87.45 150.5 88.05 150.2 88.65 149.85 89.05 149.55 89.45 149.3 89.5 149.25 89.55 149.2 91.95 147.45 94.05 144.5 99.05 137.4 99.6 127.5 99.6 127.45 99.6 127.4 99.65 126.25 99.7 125.2 99.7 123.8 99.6 122.5 99.05 115.55 95.9 110.25 95.4 109.45 94.9 108.75
L 98.95 105.9
Q 99.2 106.25 99.45 106.7 103.6 113.45 104.1 122.5 104.15 123.85 104.15 125.35 104.15 126.4 104.1 127.5
L 104.1 127.55
Q 103.7 134.75 101.3 140.75 100.3 143.35 98.9 145.7 98.4 146.5 97.85 147.35 97.55 147.8 97.2 148.3 96.85 148.8 96.45 149.3 90.55 156.85 83.05 156.95 82.95 156.95 82.9 156.95 75.5 156.9 70.45 149.65 70.3 149.45 70.2 149.3 69.85 148.8 69.55 148.3 65.7 142 65.05 133.85 64.9 132.65 64.9 131.5 64.85 130.7 64.85 129.85
L 67.95 127.7
M 34.65 153.65
Q 35.65 154.7 36.5 156.1 39.9 161.65 39.5 169.55 39.25 174.25 37.7 178.15 37.05 179.8 36.15 181.35 35.85 181.85 35.5 182.4 35.3 182.7 35.05 183 31.1 188.5 25.95 188.55 25.9 188.55 25.85 188.55 21.05 188.55 17.8 183.9 17.5 183.45 17.2 183 14.7 178.95 14.3 173.65 14.25 172.9 14.25 172.15 14.2 170.9 14.25 169.55 14.35 167.2 14.8 165.05
L 14.85 165 17.25 163.3
Q 16.3 166.1 16.15 169.4 16.1 170.7 16.15 171.9 16.2 172.65 16.25 173.4
L 20.35 173.5
Q 20.55 175 21 176.4
L 16.8 176.25
Q 17 177.05 17.3 177.85
L 21.6 177.95
Q 22 178.95 22.55 179.9 24.4 183 26.95 184 23.6 184.75 21.6 183.75 24.7 186 28.85 184.45 29.25 184.25 29.6 184.05 29.9 183.85 30.2 183.65 31.75 182.5 33.15 180.55 36.4 175.95 36.75 169.45
L 36.75 169.4
Q 37.1 162.85 34.35 158.25 32.55 155.3 30.15 154.25
L 33.05 152.2
Q 33.8 152.75 34.55 153.5 34.6 153.55 34.65 153.65
M 63.65 172.6
Q 64.6 168.85 66.85 165.95 69 163.2 71.45 162.3 72.2 162.15 73.2 161.9 73.55 161.85 73.9 161.85 76.7 161.85 78.7 164.05 78.75 164.1 78.8 164.15 79.45 164.9 80.05 165.95 82.1 169.7 81.8 174.85 81.75 175.35 81.7 175.9 81.35 179.35 80.05 182.25 79.5 183.45 78.8 184.6 78.5 185 78.25 185.4 78.05 185.6 77.9 185.85 77.7 186.1 77.5 186.35 74.5 189.9 70.9 189.95
L 70.85 189.95
Q 67.3 189.95 65.05 186.5 65 186.4 64.95 186.35 64.8 186.1 64.7 185.85 63 182.85 62.9 178.95 62.9 178.35 62.9 177.8 62.95 176.9 63.05 175.9 63.1 175.35 63.2 174.85 63.35 173.7 63.65 172.6
M 56.05 153.2
L 56.15 153.15
Q 56.45 153.8 56.9 154.4
L 57.45 155
Q 57.9 155.45 58.45 155.85
L 51.15 159.5 50.65 156.45 56 153.15
Q 56.05 153.15 56.05 153.2
M 45.8 170.55
Q 47.45 168.3 49.45 167.55 50.1 167.4 50.85 167.25 51.15 167.2 51.45 167.2 53.75 167.2 55.4 169 55.45 169 55.5 169.05 56.05 169.7 56.55 170.55 58.3 173.6 58.15 177.8 58.1 178.2 58.05 178.65 57.8 181.5 56.8 183.85 56.4 184.85 55.85 185.75 55.6 186.1 55.4 186.4 55.25 186.6 55.1 186.75 54.95 186.95 54.8 187.15 52.4 190.1 49.5 190.15
L 49.45 190.15
Q 46.55 190.1 44.7 187.3 44.65 187.25 44.6 187.15 44.45 186.95 44.35 186.75 42.95 184.3 42.8 181.15 42.75 180.7 42.75 180.25 42.75 179.45 42.85 178.65 42.85 178.2 42.95 177.8 43.05 176.85 43.25 175.95 44 172.9 45.8 170.55
M 133.1 127.5
Q 133.1 127.75 133.3 128 133.45 128.2 133.8 128.25
L 143.15 128.85
Q 142.85 135.85 141.7 142.85 141.65 142.8 141.6 142.85
L 132.5 142.3
Q 132.2 142.25 132 142.45 131.75 142.6 131.7 142.9
L 131.1 145.9
Q 131.05 146.1 131.15 146.35 131.2 146.55 131.4 146.7 131.6 146.8 131.8 146.85
L 140.9 147.35
Q 140.6 148.5 140.35 149.7 139.1 155.65 136.95 161.3 136.8 161.25 136.7 161.25
L 127.2 160.8
Q 126.95 160.75 126.75 160.9 126.55 161.05 126.45 161.25
L 125.15 164.25
Q 125.05 164.45 125.1 164.75 125.15 164.95 125.4 165.15 125.55 165.3 125.85 165.3
L 135.1 165.75
Q 134.95 166 134.85 166.3 133.45 169.35 131.75 172.4 129.9 175.6 127.7 178.55 127.5 178.35 127.25 178.4
L 117.45 178.2
Q 117.3 178.2 117.15 178.3 116.95 178.35 116.85 178.5
L 114.45 181.5
Q 114.2 181.75 114.25 182.05 114.25 182.3 114.5 182.55 114.7 182.75 115 182.75
L 123.8 182.9
Q 121.85 184.8 119.65 186.45 116.55 188.7 113.15 190.4
L 80.3 190.4
Q 88.6 184.5 94.65 175.55 102.05 164.6 105.85 152.15 106.3 150.7 106.7 149.3 109.65 138.6 110.5 127.5 110.5 127.15 110.55 126.75 110.65 124.6 110.8 122.5 111 117.55 111.05 112.55
L 143.3 114.6 143.3 124.25 134.1 123.65
Q 133.8 123.65 133.55 123.85 133.3 124.05 133.3 124.35
L 133.1 127.4
Q 133.1 127.45 133.1 127.5
M 54.4 172.75
Q 53.35 170.85 51.8 170.4 51.45 170.3 51.15 170.3 50.95 170.25 50.8 170.25 48.5 170.25 46.7 172.75 46.1 173.55 45.65 174.5 44.95 176 44.7 177.85 44.65 178.2 44.65 178.6 44.55 179.3 44.55 179.95 44.55 180.3 44.6 180.7
L 46.75 180.75
Q 46.85 181.55 47.05 182.3
L 44.85 182.2
Q 44.9 182.6 45.05 183.05
L 47.3 183.1
Q 47.5 183.65 47.8 184.15 48.6 185.55 49.75 186.15 49.9 186.2 50.05 186.3 49.85 186.3 49.7 186.35 48.2 186.6 47.25 186.2 48.85 187.35 51.05 186.55 51.25 186.4 51.45 186.3 51.6 186.2 51.75 186.15
L 51.75 186.1
Q 52.6 185.5 53.35 184.45 55.15 182.05 55.5 178.6 55.5 178.2 55.5 177.85 55.6 174.9 54.4 172.75
M 67.95 168.65
Q 67.15 169.65 66.65 170.8 65.7 172.65 65.35 174.9 65.3 175.35 65.25 175.85 65.15 176.65 65.15 177.45 65.1 177.9 65.15 178.4
L 67.8 178.45
Q 67.85 179.45 68.1 180.35
L 65.4 180.25
Q 65.5 180.75 65.65 181.25
L 68.4 181.35
Q 68.65 182 69 182.6 69.95 184.35 71.3 185.1 71.5 185.2 71.7 185.25 71.5 185.3 71.3 185.35 69.4 185.65 68.25 185.1 70.15 186.55 72.9 185.55 73.15 185.4 73.4 185.25 73.6 185.15 73.75 185.1 73.75 185.05 73.8 185.05 74.85 184.3 75.8 183.05 78.1 180.05 78.55 175.85 78.6 175.35 78.6 174.9 78.8 171.25 77.35 168.65 76.1 166.35 74.25 165.8 73.85 165.7 73.45 165.65 73.2 165.6 73 165.6 70.2 165.6 67.95 168.65
M 150.8 113.25
Q 150.8 114.05 151.4 114.6 151.95 115.15 152.7 115.2 153.5 115.15 154.05 114.6 154.6 114.05 154.65 113.25 154.6 112.45 154.05 111.9 153.5 111.35 152.7 111.35 151.95 111.35 151.4 111.9 150.8 112.45 150.8 113.25
M 176.85 115.9
Q 176.85 116.7 177.4 117.25 177.95 117.8 178.75 117.8 179.55 117.8 180.1 117.25 180.65 116.7 180.65 115.9 180.65 115.1 180.1 114.55 179.55 114 178.75 114 177.95 114 177.4 114.55 176.85 115.1 176.85 115.9
M 167.1 115.95
Q 167.65 115.4 167.65 114.6 167.6 113.8 167.05 113.25
L 167.1 113.25
Q 166.55 112.7 165.75 112.7 164.95 112.7 164.4 113.25 163.85 113.8 163.85 114.6 163.85 115.4 164.4 115.95 164.95 116.5 165.75 116.5 166.5 116.5 167.05 115.95
L 167.1 115.95
M 190.5 119.05
Q 191.3 119.05 191.85 118.5 192.4 117.95 192.4 117.15 192.4 116.35 191.85 115.8 191.3 115.25 190.5 115.25 189.7 115.25 189.15 115.8 188.6 116.35 188.6 117.15 188.6 117.95 189.15 118.5 189.7 119.05 190.5 119.05
M 119.75 69.9
Q 119.75 69.1 119.25 68.55 118.7 68 118 68 117.55 68 117.25 68.25 117 68.35 116.8 68.6 116.3 69.15 116.35 69.95 116.35 70.4 116.55 70.8 116.7 71.05 116.9 71.3 116.95 71.35 117.05 71.45 117.15 71.5 117.3 71.6 117.65 71.8 118.1 71.8 118.8 71.8 119.3 71.25 119.8 70.65 119.75 69.9
M 115.6 57.65
Q 115.5 57.7 115.45 57.8 114.95 58.35 115 59.15 115 59.2 115 59.25 115.05 59.95 115.55 60.5 116.05 61.05 116.75 61.05 116.85 61 117 61 117.5 60.9 117.9 60.45
L 117.95 60.45
Q 118.4 59.9 118.4 59.1 118.35 58.3 117.85 57.75 117.8 57.65 117.7 57.6 117.25 57.2 116.65 57.2 116.05 57.2 115.6 57.65
M 112.7 47.95
Q 112.2 48.5 112.2 49.3 112.25 50.1 112.75 50.65 113.25 51.2 113.95 51.2 114.25 51.15 114.5 51.1 114.85 50.95 115.15 50.6 115.6 50.1 115.6 49.4 115.6 49.3 115.6 49.25 115.6 48.45 115.1 47.9 114.55 47.35 113.85 47.35 113.15 47.35 112.7 47.95
M 244.3 23.25
Q 244.35 23.4 244.35 22.85 244.3 20.35 243.35 19.25
L 224.75 30
Q 223.25 28.3 222.65 26.3
L 236.4 13.6
Q 237.4 13.4 239.45 14.25 239.65 14.35 239.9 14.5 238.65 13.05 236.5 12.05 236.1 11.9 235.75 11.75 234.1 11.25 232.35 11.15 227.25 10.95 223.5 14.35 219.8 17.8 219.65 22.85 219.6 24.65 220 26.35 220.45 28.15 221.5 29.8
L 221.6 29.9
Q 222.2 30.8 223 31.65 223.2 31.85 223.45 32.15
L 223.5 32.15
Q 224.8 33.4 226.3 34.25 228.65 35.5 231.55 35.65
L 231.6 35.65
Q 236.7 35.85 240.4 32.45 242.75 30.2 243.15 28.55
L 228.8 32.8
Q 227.55 32.35 226.5 31.6
L 244.3 23.25 Z"/>
</g>
</defs>

<g transform="matrix( 1, 0, 0, 1, 0,5.3) ">
<use xlink:href="#Layer0_0_FILL"/>
</g>
</svg>
